<?xml version="1.0" encoding="UTF-8"?>
<!-- Created by Svg.la -->
<svg version="1.1" xmlns="http://www.w3.org/2000/svg" width="600" height="600">
<path d="M0 0 C198 0 396 0 600 0 C600 198 600 396 600 600 C402 600 204 600 0 600 C0 402 0 204 0 0 Z " fill="#102135" transform="translate(0,0)"/>
<path d="M0 0 C5.938 3.497 9.686 7.71 13.062 13.625 C13.514 14.388 13.965 15.151 14.43 15.937 C19.636 24.861 24.428 34.023 29.278 43.144 C43.642 72.292 43.642 72.292 63 98 C71.345 98.948 77.221 97.949 84 93 C84.592 92.577 85.183 92.154 85.793 91.719 C91.398 87.307 95.601 81.56 100 76 C113.942 58.519 113.942 58.519 120.492 55.266 C124.817 52.878 126.137 49.605 128 45.188 C133.521 33.263 133.521 33.263 139 30 C142.562 29.125 142.562 29.125 146 30 C150.497 34.019 153.334 38.993 155.75 44.438 C156.082 45.161 156.413 45.885 156.755 46.631 C160.014 53.834 162.989 61.156 165.996 68.467 C169.267 76.369 172.734 84.17 176.312 91.938 C176.804 93.009 177.295 94.08 177.802 95.183 C180.356 100.684 183.036 106.028 186.106 111.26 C187 113 187 113 187 115 C190.354 114.051 193.692 113.103 197 112 C198.024 110.214 198.024 110.214 199 108 C200.22 106.16 201.451 104.328 202.688 102.5 C207.443 95.28 211.505 87.688 215.562 80.062 C215.89 79.447 216.218 78.831 216.556 78.197 C219.548 72.569 222.519 66.931 225.461 61.277 C239.517 34.344 239.517 34.344 250 29 C254.811 28.224 257.753 28.428 261.875 31.062 C274.417 41.736 280.915 59.214 288.23 73.609 C292.606 82.189 297.295 90.597 302 99 C307.083 99.113 307.083 99.113 312 98 C312.702 96.685 313.36 95.346 314 94 C315.573 91.82 317.166 89.685 318.812 87.562 C319.239 87.002 319.665 86.442 320.104 85.865 C327.489 76.289 327.489 76.289 331.938 75.438 C338.274 76.601 342.414 81.226 346.688 85.75 C354.323 93.602 364.668 103.626 376 105 C376.367 103.995 376.367 103.995 376.742 102.969 C378.284 99.329 380.182 95.936 382.125 92.5 C383.02 90.905 383.915 89.31 384.809 87.715 C385.559 86.377 385.559 86.377 386.324 85.011 C388.222 81.601 390.099 78.178 391.973 74.754 C392.675 73.473 393.377 72.191 394.08 70.91 C395.123 69.007 396.165 67.104 397.203 65.198 C401.523 57.275 406.031 49.536 411 42 C411.426 41.349 411.852 40.699 412.291 40.028 C416.805 33.234 421.615 27.028 427.375 21.25 C427.875 20.749 428.375 20.247 428.889 19.731 C432.44 16.288 435.151 14.347 440 13.438 C445.85 13.566 451.501 17.55 456 21 C456 21.99 456 22.98 456 24 C453.438 22.77 451.192 21.461 448.812 19.875 C445.337 17.945 442.381 17.104 438.391 17.301 C423.203 21.743 411.636 45.946 404.417 58.825 C402.255 62.777 400.127 66.747 398.006 70.721 C387.251 90.831 375.843 110.831 362 129 C361.361 129.846 360.721 130.691 360.062 131.562 C338.842 158.571 302.65 187.53 267.445 192.781 C266.638 192.853 265.831 192.926 265 193 C263.987 193.093 262.974 193.186 261.93 193.281 C250.093 193.841 241.258 189.77 232.363 182.152 C231.583 181.442 230.804 180.732 230 180 C229.251 179.321 228.502 178.641 227.73 177.941 C193.374 145.149 172.912 95.09 155.562 51.938 C151.443 41.74 151.443 41.74 145 33 C142.563 32.551 142.563 32.551 140 33 C134.159 37.443 130.905 44.413 127.938 50.938 C127.512 51.85 127.086 52.762 126.648 53.702 C123.711 60.116 121.147 66.606 118.976 73.318 C117.647 77.403 115.999 81.088 114.036 84.887 C112.97 87.062 112.07 89.254 111.191 91.512 C108.364 98.724 105.142 105.762 101.938 112.812 C101.608 113.539 101.278 114.265 100.938 115.013 C77.06 167.47 77.06 167.47 66 173 C62.875 173.562 62.875 173.562 59 173 C52.637 168.521 48.158 161.476 43.52 155.316 C39.828 150.424 35.916 145.714 32 141 C31.433 140.296 30.866 139.592 30.281 138.867 C27.535 135.518 25.131 132.612 21 131 C17.05 130.696 14.875 131.285 11.797 133.801 C7.547 137.986 3.651 142.486 -0.234 147.008 C-9.601 157.577 -9.601 157.577 -15.188 158.562 C-20.796 157.735 -22.683 154.383 -26 150 C-28.231 146.664 -30.254 143.231 -32.25 139.75 C-33.088 138.313 -33.088 138.313 -33.943 136.847 C-37.613 130.519 -41.139 124.119 -44.625 117.688 C-54.254 99.965 -65.183 82.851 -80 69 C-79.01 68.01 -79.01 68.01 -78 67 C-77.004 68.1 -77.004 68.1 -75.988 69.223 C-75.105 70.16 -74.222 71.097 -73.312 72.062 C-72.442 73.002 -71.572 73.942 -70.676 74.91 C-68.217 77.299 -68.217 77.299 -65.355 76.871 C-64.578 76.584 -63.801 76.296 -63 76 C-61.515 75.505 -61.515 75.505 -60 75 C-59.285 73.692 -58.625 72.353 -58 71 C-56.914 69.549 -55.807 68.113 -54.688 66.688 C-49.759 60.024 -45.829 52.839 -41.833 45.589 C-14.973 -2.995 -14.973 -2.995 0 0 Z " fill="#142B42" transform="translate(110,220)"/>
<path d="M0 0 C15.541 8.89 23.309 31.999 31.057 47.25 C42.963 70.633 55.543 94.578 72.305 114.902 C74.402 117.497 76.22 120.181 78 123 C72.788 127.751 67.45 131.994 61.562 135.875 C60.396 136.645 60.396 136.645 59.205 137.43 C46.129 145.926 32.882 152.34 18 157 C16.864 157.374 15.729 157.748 14.559 158.133 C6.17 160.177 -4.558 160.75 -12.5 157 C-14.781 155.602 -14.781 155.602 -17 154 C-17.815 153.43 -18.629 152.86 -19.469 152.273 C-37.3 138.9 -49.597 118.773 -61 100 C-61.595 99.022 -61.595 99.022 -62.203 98.025 C-68 88.455 -68 88.455 -68 86 C-66.866 85.752 -65.731 85.505 -64.562 85.25 C-50.599 79.876 -42.039 55.049 -35.765 42.811 C-12.697 -2.156 -12.697 -2.156 0 0 Z " fill="#142B42" transform="translate(367,251)"/>
<path d="M0 0 C5.938 3.497 9.686 7.71 13.062 13.625 C13.514 14.388 13.965 15.151 14.43 15.937 C19.636 24.861 24.428 34.023 29.278 43.144 C43.642 72.292 43.642 72.292 63 98 C71.345 98.948 77.221 97.949 84 93 C84.592 92.577 85.183 92.154 85.793 91.719 C91.398 87.307 95.601 81.56 100 76 C113.942 58.519 113.942 58.519 120.492 55.266 C124.817 52.878 126.137 49.605 128 45.188 C133.521 33.263 133.521 33.263 139 30 C142.562 29.125 142.562 29.125 146 30 C150.497 34.019 153.334 38.993 155.75 44.438 C156.082 45.161 156.413 45.885 156.755 46.631 C160.014 53.834 162.989 61.156 165.996 68.467 C169.267 76.369 172.734 84.17 176.312 91.938 C176.804 93.009 177.295 94.08 177.802 95.183 C180.356 100.684 183.036 106.028 186.106 111.26 C187 113 187 113 187 115 C190.354 114.051 193.692 113.103 197 112 C198.024 110.214 198.024 110.214 199 108 C200.22 106.16 201.451 104.328 202.688 102.5 C207.443 95.28 211.505 87.688 215.562 80.062 C215.89 79.447 216.218 78.831 216.556 78.197 C219.548 72.569 222.519 66.931 225.461 61.277 C239.517 34.344 239.517 34.344 250 29 C254.811 28.224 257.753 28.428 261.875 31.062 C274.417 41.736 280.915 59.214 288.23 73.609 C292.606 82.189 297.295 90.597 302 99 C307.083 99.113 307.083 99.113 312 98 C312.702 96.685 313.36 95.346 314 94 C315.573 91.82 317.166 89.685 318.812 87.562 C319.239 87.002 319.665 86.442 320.104 85.865 C327.489 76.289 327.489 76.289 331.938 75.438 C338.274 76.601 342.414 81.226 346.688 85.75 C354.323 93.602 364.668 103.626 376 105 C376.367 103.995 376.367 103.995 376.742 102.969 C378.284 99.329 380.182 95.936 382.125 92.5 C383.02 90.905 383.915 89.31 384.809 87.715 C385.559 86.377 385.559 86.377 386.324 85.011 C388.222 81.601 390.099 78.178 391.973 74.754 C392.675 73.473 393.377 72.191 394.08 70.91 C395.123 69.007 396.165 67.104 397.203 65.198 C401.523 57.275 406.031 49.536 411 42 C411.426 41.349 411.852 40.699 412.291 40.028 C416.805 33.234 421.615 27.028 427.375 21.25 C427.875 20.749 428.375 20.247 428.889 19.731 C432.44 16.288 435.151 14.347 440 13.438 C445.85 13.566 451.501 17.55 456 21 C456 21.99 456 22.98 456 24 C453.438 22.77 451.192 21.461 448.812 19.875 C445.337 17.945 442.381 17.104 438.391 17.301 C423.203 21.743 411.636 45.946 404.417 58.825 C402.255 62.777 400.127 66.747 398.006 70.721 C387.251 90.831 375.843 110.831 362 129 C361.361 129.846 360.721 130.691 360.062 131.562 C338.842 158.571 302.65 187.53 267.445 192.781 C266.638 192.853 265.831 192.926 265 193 C263.987 193.093 262.974 193.186 261.93 193.281 C250.093 193.841 241.258 189.77 232.363 182.152 C231.583 181.442 230.804 180.732 230 180 C229.251 179.321 228.502 178.641 227.73 177.941 C193.374 145.149 172.912 95.09 155.562 51.938 C151.443 41.74 151.443 41.74 145 33 C142.563 32.551 142.563 32.551 140 33 C134.159 37.443 130.905 44.413 127.938 50.938 C127.512 51.85 127.086 52.762 126.648 53.702 C123.711 60.116 121.147 66.606 118.976 73.318 C117.647 77.403 115.999 81.088 114.036 84.887 C112.97 87.062 112.07 89.254 111.191 91.512 C108.364 98.724 105.142 105.762 101.938 112.812 C101.608 113.539 101.278 114.265 100.938 115.013 C77.06 167.47 77.06 167.47 66 173 C62.875 173.562 62.875 173.562 59 173 C52.637 168.521 48.158 161.476 43.52 155.316 C39.828 150.424 35.916 145.714 32 141 C31.433 140.296 30.866 139.592 30.281 138.867 C27.535 135.518 25.131 132.612 21 131 C17.05 130.696 14.875 131.285 11.797 133.801 C7.547 137.986 3.651 142.486 -0.234 147.008 C-9.601 157.577 -9.601 157.577 -15.188 158.562 C-20.796 157.735 -22.683 154.383 -26 150 C-28.231 146.664 -30.254 143.231 -32.25 139.75 C-33.088 138.313 -33.088 138.313 -33.943 136.847 C-37.613 130.519 -41.139 124.119 -44.625 117.688 C-54.254 99.965 -65.183 82.851 -80 69 C-79.01 68.01 -79.01 68.01 -78 67 C-77.004 68.1 -77.004 68.1 -75.988 69.223 C-75.105 70.16 -74.222 71.097 -73.312 72.062 C-72.442 73.002 -71.572 73.942 -70.676 74.91 C-68.217 77.299 -68.217 77.299 -65.355 76.871 C-64.578 76.584 -63.801 76.296 -63 76 C-61.515 75.505 -61.515 75.505 -60 75 C-59.285 73.692 -58.625 72.353 -58 71 C-56.914 69.549 -55.807 68.113 -54.688 66.688 C-49.759 60.024 -45.829 52.839 -41.833 45.589 C-14.973 -2.995 -14.973 -2.995 0 0 Z M-25.455 22.709 C-31.567 31.737 -36.834 41.308 -42.116 50.838 C-46.268 58.281 -50.785 65.254 -56 72 C-56.681 72.89 -57.362 73.78 -58.063 74.696 C-60.148 77.176 -62.152 78.497 -65 80 C-63.255 83.841 -60.872 87.218 -58.5 90.688 C-51.542 101.024 -45.322 111.726 -39.352 122.66 C-38.699 123.851 -38.046 125.042 -37.393 126.233 C-36.123 128.553 -34.866 130.878 -33.616 133.208 C-29.293 141.128 -24.444 149.556 -18 156 C-12.039 155.776 -9.528 154.243 -5.5 149.938 C-5.027 149.441 -4.554 148.944 -4.067 148.433 C-1.401 145.609 1.158 142.696 3.688 139.75 C12.6 129.455 12.6 129.455 18.625 128.312 C30.146 130.659 38.497 144.141 45.125 153.125 C48.617 157.853 52.119 162.529 55.938 167 C56.607 167.784 57.276 168.567 57.965 169.375 C59.899 171.128 59.899 171.128 62.316 171.688 C68.919 169.996 72.881 163.069 76.224 157.542 C76.886 156.407 76.886 156.407 77.562 155.25 C78.265 154.067 78.265 154.067 78.981 152.861 C79.906 151.296 80.826 149.728 81.74 148.157 C82.844 146.267 83.971 144.393 85.109 142.523 C85.671 141.567 86.233 140.61 86.812 139.625 C87.293 138.813 87.774 138.001 88.27 137.164 C89.229 135.02 89.229 135.02 88.352 132.922 C86.912 130.875 85.405 129.318 83.562 127.625 C59.708 104.285 42.346 72.487 26.898 43.281 C26.549 42.621 26.199 41.96 25.838 41.279 C24.125 38.043 22.421 34.803 20.732 31.554 C12.784 15.79 12.784 15.79 1 3 C-10.78 0.896 -19.427 14.12 -25.455 22.709 Z M234 50 C228.168 59.747 223.013 69.868 217.988 80.048 C201.893 112.483 201.893 112.483 192.5 116.125 C191.345 116.414 190.19 116.702 189 117 C195.918 135.529 209.424 152.928 222 168 C222.655 168.8 222.655 168.8 223.322 169.617 C230.446 178.253 239.158 186.386 250 190 C268.984 191.644 284.777 185.872 301.276 176.929 C302.82 176.097 304.381 175.3 305.945 174.508 C316.472 169.076 326.225 161.939 335 154 C334.237 152.989 333.474 151.979 332.688 150.938 C331.868 149.839 331.868 149.839 331.031 148.719 C329.951 147.273 328.87 145.829 327.781 144.391 C321.363 135.909 315.498 127.303 310.2 118.08 C308.938 115.893 307.656 113.72 306.371 111.547 C299.981 100.64 294.119 89.505 288.375 78.25 C276.303 51.765 276.303 51.765 257 31 C246.934 28.374 238.589 42.814 234 50 Z " fill="#DDE0E3" transform="translate(110,220)"/>
<path d="M0 0 C3.719 0.687 5.7 2.789 8.289 5.367 C9.351 6.379 10.414 7.391 11.477 8.402 C12.539 9.432 13.602 10.462 14.664 11.492 C22.641 19.112 30.268 25.525 40.664 29.492 C34.908 44.806 22.277 58.101 10.914 69.555 C10.413 70.061 9.912 70.568 9.396 71.09 C5.923 74.492 5.923 74.492 3.664 74.492 C-7.522 62.691 -15.893 48.252 -24.202 34.375 C-25.17 32.768 -26.161 31.176 -27.156 29.586 C-28.336 27.492 -28.336 27.492 -28.336 25.492 C-27.181 25.203 -26.026 24.915 -24.836 24.617 C-18.859 22.382 -15.952 17.504 -12.336 12.492 C-11.072 10.841 -9.801 9.195 -8.523 7.555 C-7.981 6.844 -7.438 6.134 -6.879 5.402 C-6.37 4.772 -5.861 4.142 -5.336 3.492 C-4.878 2.913 -4.421 2.335 -3.949 1.738 C-2.336 0.492 -2.336 0.492 0 0 Z " fill="#152C43" transform="translate(442.3359375,297.5078125)"/>
<path d="M0 0 C4.233 1.982 8.286 4.152 12 7 C12 7.99 12 8.98 12 10 C9.438 8.77 7.192 7.461 4.812 5.875 C1.337 3.945 -1.619 3.104 -5.609 3.301 C-20.797 7.743 -32.364 31.946 -39.583 44.825 C-41.745 48.777 -43.873 52.747 -45.994 56.721 C-56.749 76.831 -68.157 96.831 -82 115 C-82.959 116.268 -82.959 116.268 -83.938 117.562 C-105.158 144.571 -141.35 173.53 -176.555 178.781 C-177.362 178.853 -178.169 178.926 -179 179 C-180.013 179.093 -181.026 179.186 -182.07 179.281 C-193.907 179.841 -202.742 175.77 -211.637 168.152 C-212.807 167.087 -212.807 167.087 -214 166 C-214.749 165.321 -215.498 164.641 -216.27 163.941 C-251.673 130.15 -271.634 78.827 -289.887 34.594 C-290.943 32.041 -290.943 32.041 -292.137 29.828 C-293.248 27.475 -293.143 25.569 -293 23 C-290.043 26.515 -288.31 30.449 -286.5 34.625 C-285.987 35.791 -285.987 35.791 -285.464 36.98 C-283.404 41.688 -281.4 46.418 -279.418 51.16 C-274.823 62.151 -270.145 73.066 -265 83.812 C-264.543 84.767 -264.087 85.721 -263.616 86.704 C-261.91 90.224 -260.206 93.658 -258.188 97.012 C-257 99 -257 99 -257 101 C-253.646 100.051 -250.308 99.103 -247 98 C-245.976 96.214 -245.976 96.214 -245 94 C-243.78 92.16 -242.549 90.328 -241.312 88.5 C-236.557 81.28 -232.495 73.688 -228.438 66.062 C-228.11 65.447 -227.782 64.831 -227.444 64.197 C-224.452 58.569 -221.481 52.931 -218.539 47.277 C-204.483 20.344 -204.483 20.344 -194 15 C-189.189 14.224 -186.247 14.428 -182.125 17.062 C-169.583 27.736 -163.085 45.214 -155.77 59.609 C-151.394 68.189 -146.705 76.597 -142 85 C-136.917 85.113 -136.917 85.113 -132 84 C-131.298 82.685 -130.64 81.346 -130 80 C-128.427 77.82 -126.834 75.685 -125.188 73.562 C-124.761 73.002 -124.335 72.442 -123.896 71.865 C-116.511 62.289 -116.511 62.289 -112.062 61.438 C-105.726 62.601 -101.586 67.226 -97.312 71.75 C-89.677 79.602 -79.332 89.626 -68 91 C-67.755 90.33 -67.51 89.659 -67.258 88.969 C-65.716 85.329 -63.818 81.936 -61.875 78.5 C-60.98 76.905 -60.085 75.31 -59.191 73.715 C-58.441 72.377 -58.441 72.377 -57.676 71.011 C-55.778 67.601 -53.901 64.178 -52.027 60.754 C-51.325 59.473 -50.623 58.191 -49.92 56.91 C-48.877 55.007 -47.835 53.104 -46.797 51.198 C-42.477 43.275 -37.969 35.536 -33 28 C-32.574 27.349 -32.148 26.699 -31.709 26.028 C-27.195 19.234 -22.385 13.028 -16.625 7.25 C-16.125 6.749 -15.625 6.247 -15.111 5.731 C-10.624 1.38 -6.414 -1.516 0 0 Z M-210 36 C-215.832 45.747 -220.987 55.868 -226.012 66.048 C-242.107 98.483 -242.107 98.483 -251.5 102.125 C-252.655 102.414 -253.81 102.702 -255 103 C-248.082 121.529 -234.576 138.928 -222 154 C-221.345 154.8 -221.345 154.8 -220.678 155.617 C-213.554 164.253 -204.842 172.386 -194 176 C-175.016 177.644 -159.223 171.872 -142.724 162.929 C-141.18 162.097 -139.619 161.3 -138.055 160.508 C-127.528 155.076 -117.775 147.939 -109 140 C-109.763 138.989 -110.526 137.979 -111.312 136.938 C-112.132 135.839 -112.132 135.839 -112.969 134.719 C-114.049 133.273 -115.13 131.829 -116.219 130.391 C-122.637 121.909 -128.502 113.303 -133.8 104.08 C-135.062 101.893 -136.344 99.72 -137.629 97.547 C-144.019 86.64 -149.881 75.505 -155.625 64.25 C-167.697 37.765 -167.697 37.765 -187 17 C-197.066 14.374 -205.411 28.814 -210 36 Z M-118.312 68.312 C-119.087 69.217 -119.862 70.122 -120.66 71.055 C-123.64 74.806 -126.403 78.679 -129.078 82.652 C-132.048 86.28 -135.41 88.15 -140 89 C-133.332 106.804 -120.377 123.768 -108 138 C-103.928 136.369 -101.107 133.491 -98.062 130.438 C-97.498 129.872 -96.934 129.306 -96.353 128.723 C-80.083 112.589 -80.083 112.589 -71 93 C-71.739 92.671 -72.477 92.343 -73.238 92.004 C-84.951 86.512 -93.696 78.578 -102.59 69.383 C-106.446 65.411 -106.446 65.411 -111.48 63.543 C-114.964 64.175 -116.036 65.636 -118.312 68.312 Z " fill="#DDDFE3" transform="translate(554,234)"/>
<path d="M0 0 C-1.883 5.874 -3.973 11.596 -6.371 17.277 C-6.69 18.039 -7.009 18.8 -7.337 19.584 C-8.366 22.037 -9.401 24.488 -10.438 26.938 C-10.789 27.773 -11.141 28.608 -11.504 29.469 C-17.688 44.131 -24.17 58.627 -31 73 C-39.461 69.057 -45.396 59.65 -51.125 52.438 C-51.61 51.83 -52.096 51.223 -52.596 50.597 C-56 46.244 -56 46.244 -56 44 C-55.371 43.902 -54.742 43.804 -54.094 43.703 C-38.235 40.933 -29.664 31.314 -20 19 C-5.09 0 -5.09 0 0 0 Z " fill="#182E45" transform="translate(232,278)"/>
<path d="M0 0 C5.963 3.409 9.705 7.743 13.062 13.625 C13.514 14.388 13.965 15.151 14.43 15.937 C19.636 24.861 24.428 34.023 29.278 43.144 C43.642 72.292 43.642 72.292 63 98 C64.682 98.233 66.371 98.413 68.062 98.562 C69.441 98.688 69.441 98.688 70.848 98.816 C71.558 98.877 72.268 98.938 73 99 C73 99.99 73 100.98 73 102 C70.69 102 68.38 102 66 102 C70.956 109.052 76.134 115.682 82 122 C81.505 123.485 81.505 123.485 81 125 C70.565 114.768 62.186 103.05 54 91 C53.54 90.323 53.08 89.647 52.605 88.95 C42.721 74.305 34.154 58.889 25.898 43.281 C25.549 42.621 25.199 41.96 24.838 41.279 C23.125 38.043 21.421 34.803 19.732 31.554 C11.948 16.63 11.948 16.63 1 4 C-1.427 3.404 -1.427 3.404 -3.812 3.688 C-4.998 3.755 -4.998 3.755 -6.207 3.824 C-6.799 3.882 -7.39 3.94 -8 4 C-8 3.01 -8 2.02 -8 1 C-5.025 -0.487 -3.327 -0.431 0 0 Z " fill="#D9DDE1" transform="translate(110,220)"/>
<path d="M0 0 C2.387 1.84 3.365 3.343 5 6 C4.812 8.375 4.812 8.375 4 10 C3.361 9.031 2.721 8.061 2.062 7.062 C0.303 4.24 0.303 4.24 -1 3 C-3.928 2.662 -5.434 2.576 -7.833 4.372 C-12.379 9.77 -15.442 15.322 -18.312 21.75 C-18.955 23.148 -18.955 23.148 -19.611 24.574 C-20.403 26.295 -21.188 28.018 -21.966 29.745 C-22.933 31.855 -23.949 33.931 -25 36 C-25.921 33.421 -26.185 32.406 -25.023 29.859 C-24.686 29.246 -24.348 28.632 -24 28 C-32.447 33.662 -38.672 41.008 -44.938 48.938 C-59.724 67.575 -59.724 67.575 -70 71 C-71.728 71.068 -73.458 71.085 -75.188 71.062 C-76.539 71.049 -76.539 71.049 -77.918 71.035 C-78.605 71.024 -79.292 71.012 -80 71 C-80 70.67 -80 70.34 -80 70 C-78.701 69.773 -77.401 69.546 -76.062 69.312 C-62.429 66.252 -54.302 56.493 -46 46 C-32.058 28.519 -32.058 28.519 -25.508 25.266 C-21.183 22.878 -19.863 19.605 -18 15.188 C-9.869 -2.376 -9.869 -2.376 0 0 Z " fill="#E1E3E7" transform="translate(256,250)"/>
<path d="M0 0 C4.233 1.982 8.286 4.152 12 7 C12 7.99 12 8.98 12 10 C9.438 8.77 7.192 7.461 4.812 5.875 C1.337 3.945 -1.619 3.104 -5.609 3.301 C-17.12 6.668 -25.901 22.436 -32 32 C-32.66 31.67 -33.32 31.34 -34 31 C-29.735 22.268 -24.66 15.287 -17.812 8.438 C-17.206 7.83 -16.6 7.222 -15.976 6.596 C-11.294 2.03 -6.927 -1.637 0 0 Z " fill="#D6D9DE" transform="translate(554,234)"/>
<path d="M0 0 C2.957 3.515 4.69 7.449 6.5 11.625 C6.836 12.39 7.172 13.154 7.518 13.942 C11.173 22.305 14.708 30.72 18.23 39.139 C18.676 40.202 19.123 41.265 19.582 42.359 C19.998 43.354 20.414 44.348 20.842 45.373 C21.783 47.508 22.797 49.493 23.949 51.516 C24.296 52.335 24.643 53.155 25 54 C24.066 56.155 24.066 56.155 23 58 C21.269 54.084 19.54 50.167 17.812 46.25 C17.33 45.158 16.847 44.066 16.35 42.941 C13.142 35.664 10.031 28.353 7 21 C6.501 19.793 6.002 18.587 5.488 17.344 C4.696 15.427 3.904 13.511 3.113 11.594 C2.057 9.041 2.057 9.041 0.863 6.828 C-0.248 4.475 -0.143 2.569 0 0 Z " fill="#D7DCE0" transform="translate(261,257)"/>
<path d="M0 0 C2.463 2.235 3.89 4.412 5.375 7.379 C6.017 8.637 6.017 8.637 6.672 9.92 C7.559 11.685 8.444 13.45 9.328 15.217 C9.97 16.473 9.97 16.473 10.625 17.754 C11.009 18.52 11.393 19.287 11.789 20.076 C13.005 22.298 13.005 22.298 16 24 C15.34 24 14.68 24 14 24 C14.373 24.603 14.745 25.207 15.129 25.828 C15.839 27.027 15.839 27.027 16.562 28.25 C17.038 29.039 17.514 29.828 18.004 30.641 C19.13 33.308 19.017 34.345 18 37 C13.233 28.627 8.519 20.226 3.938 11.75 C3.347 10.679 3.347 10.679 2.744 9.586 C0.853 6.054 0 4.088 0 0 Z " fill="#DDE0E3" transform="translate(285,313)"/>
<path d="M0 0 C1.043 1.847 1.043 1.847 2 4 C1.312 6.453 1.312 6.453 0 9.25 C-2.537 14.892 -4.75 20.579 -6.855 26.392 C-8.332 30.407 -10.017 34.21 -12 38 C-13.179 36.489 -13.179 36.489 -14 34 C-13.181 31.232 -12.283 28.798 -11.133 26.172 C-10.819 25.423 -10.506 24.674 -10.183 23.902 C-9.178 21.512 -8.152 19.131 -7.125 16.75 C-6.44 15.131 -5.756 13.511 -5.074 11.891 C-3.399 7.92 -1.705 3.958 0 0 Z " fill="#D5D8DD" transform="translate(229,284)"/>
<path d="M0 0 C0.99 0 1.98 0 3 0 C5.051 2.344 5.051 2.344 7.312 5.5 C8.109 6.599 8.906 7.698 9.703 8.797 C10.461 9.854 11.219 10.911 12 12 C13.183 13.587 14.37 15.171 15.562 16.75 C16.375 17.833 17.188 18.917 18 20 C17.01 20 16.02 20 15 20 C14.34 19.34 13.68 18.68 13 18 C11.762 17.567 11.762 17.567 10.5 17.125 C7.507 15.778 7.343 14.865 6 12 C3.966 10.732 3.966 10.732 2 10 C2.33 9.34 2.66 8.68 3 8 C3.66 8 4.32 8 5 8 C4.175 7.051 3.35 6.103 2.5 5.125 C0 2.25 0 2.25 0 0 Z " fill="#152C45" transform="translate(170,322)"/>
<path d="M0 0 C2.051 0.033 4.102 0.065 6.152 0.098 C6.152 1.088 6.152 2.078 6.152 3.098 C3.842 3.098 1.532 3.098 -0.848 3.098 C4.108 10.149 9.287 16.779 15.152 23.098 C14.822 24.088 14.492 25.078 14.152 26.098 C10.544 22.586 7.227 18.925 4.027 15.035 C3.598 14.519 3.169 14.003 2.727 13.471 C1.526 12.021 0.339 10.559 -0.848 9.098 C-1.448 8.36 -2.049 7.623 -2.668 6.863 C-3.848 5.098 -3.848 5.098 -3.598 2.91 C-2.447 0.129 -2.447 0.129 0 0 Z " fill="#D4D8DC" transform="translate(176.84765625,318.90234375)"/>
<path d="M0 0 C-13.944 7.527 -24.39 9.596 -40 8 C-40 7.67 -40 7.34 -40 7 C-38.706 6.996 -38.706 6.996 -37.387 6.992 C-26.246 6.639 -9.619 -2.886 0 0 Z " fill="#E1E2E6" transform="translate(403,403)"/>
<path d="M0 0 C3.631 2.65 5.899 5.018 8 9 C5.36 11.31 2.72 13.62 0 16 C-1.32 15.01 -2.64 14.02 -4 13 C-3.381 12.814 -2.762 12.629 -2.125 12.438 C1.056 10.286 1.195 7.625 2 4 C1.34 4 0.68 4 0 4 C0 2.68 0 1.36 0 0 Z " fill="#1D3146" transform="translate(437,365)"/>
<path d="M0 0 C-1.374 3.084 -2.946 5.193 -5.336 7.566 C-5.988 8.217 -6.64 8.867 -7.312 9.537 C-7.993 10.205 -8.674 10.874 -9.375 11.562 C-10.048 12.235 -10.721 12.907 -11.414 13.6 C-19.89 22 -19.89 22 -23 22 C-19.604 14.685 -19.604 14.685 -16.281 13.266 C-12.901 11.39 -10.527 8.656 -7.875 5.875 C-2.269 0 -2.269 0 0 0 Z " fill="#E4E7E9" transform="translate(464,357)"/>
<path d="M0 0 C-1.748 5.467 -3.658 10.758 -6 16 C-6.66 14.68 -7.32 13.36 -8 12 C-8.99 12 -9.98 12 -11 12 C-11.33 11.01 -11.66 10.02 -12 9 C-10.899 7.872 -9.794 6.748 -8.688 5.625 C-8.073 4.999 -7.458 4.372 -6.824 3.727 C-2.887 0 -2.887 0 0 0 Z " fill="#1E3448" transform="translate(232,278)"/>
<path d="M0 0 C4.231 1.988 8.285 4.151 12 7 C12 7.99 12 8.98 12 10 C9.438 8.77 7.192 7.461 4.812 5.875 C0.671 3.463 -3.314 3.418 -8 4 C-8.99 4.495 -8.99 4.495 -10 5 C-10.66 4.34 -11.32 3.68 -12 3 C-7.825 -0.037 -5.124 -0.813 0 0 Z " fill="#CACCD3" transform="translate(554,234)"/>
<path d="M0 0 C0.99 0.66 1.98 1.32 3 2 C2.01 2.33 1.02 2.66 0 3 C-0.309 3.949 -0.619 4.897 -0.938 5.875 C-2.388 10.142 -4.402 11.157 -8.25 13.188 C-8.827 13.456 -9.405 13.724 -10 14 C-10.99 13.01 -11.98 12.02 -13 11 C-12.229 10.374 -11.458 9.747 -10.664 9.102 C-9.16 7.876 -9.16 7.876 -7.625 6.625 C-6.627 5.813 -5.63 5.001 -4.602 4.164 C-2.036 2.097 -2.036 2.097 0 0 Z " fill="#18283C" transform="translate(452,370)"/>
<path d="M0 0 C2.051 0.033 4.102 0.065 6.152 0.098 C1.15 9.692 1.15 9.692 -2.848 13.098 C-2.848 11.778 -2.848 10.458 -2.848 9.098 C-2.859 8.403 -2.871 7.708 -2.883 6.992 C-2.909 5.027 -2.88 3.062 -2.848 1.098 C-1.848 0.098 -1.848 0.098 0 0 Z " fill="#18283B" transform="translate(311.84765625,314.90234375)"/>
<path d="M0 0 C3.006 3.585 5.43 7.253 7.75 11.312 C8.364 12.381 8.977 13.45 9.609 14.551 C10.068 15.359 10.527 16.167 11 17 C10.01 16.67 9.02 16.34 8 16 C8 15.34 8 14.68 8 14 C7.34 14 6.68 14 6 14 C6 13.01 6 12.02 6 11 C5.34 11 4.68 11 4 11 C4 11.66 4 12.32 4 13 C3.34 13 2.68 13 2 13 C1.67 12.01 1.34 11.02 1 10 C0.34 10 -0.32 10 -1 10 C-2.467 6.185 -1.433 3.71 0 0 Z " fill="#1B293D" transform="translate(303,350)"/>
<path d="M0 0 C0.66 0.99 1.32 1.98 2 3 C0.272 5.227 -1.458 7.453 -3.195 9.672 C-4.537 11.403 -5.841 13.163 -7.125 14.938 C-9.297 17.326 -10.858 18.275 -14 19 C-14.99 18.34 -15.98 17.68 -17 17 C-14.348 15.925 -11.716 14.905 -9 14 C-7.975 12.203 -7.975 12.203 -7 10 C-5.817 8.233 -4.607 6.484 -3.375 4.75 C-2.743 3.858 -2.112 2.966 -1.461 2.047 C-0.738 1.034 -0.738 1.034 0 0 Z " fill="#DADDE1" transform="translate(59,281)"/>
<path d="M0 0 C0.565 0.709 1.129 1.418 1.711 2.148 C4.765 5.953 7.873 9.713 10.977 13.477 C13 16 13 16 15 19 C14.34 19.66 13.68 20.32 13 21 C11.395 19.084 9.791 17.168 8.188 15.25 C7.736 14.711 7.284 14.172 6.818 13.617 C-0.413 4.96 -0.413 4.96 0 0 Z " fill="#D3D7DB" transform="translate(431,352)"/>
<path d="M0 0 C1.029 3.187 0.933 5.267 0.125 8.5 C-0.058 9.253 -0.241 10.006 -0.43 10.781 C-0.712 11.88 -0.712 11.88 -1 13 C-1.126 13.712 -1.253 14.423 -1.383 15.156 C-2 17 -2 17 -5 19 C-5.99 19 -6.98 19 -8 19 C-6.601 14.532 -4.864 10.362 -2.875 6.125 C-2.336 4.973 -1.797 3.82 -1.242 2.633 C-0.627 1.33 -0.627 1.33 0 0 Z " fill="#202E40" transform="translate(208,339)"/>
<path d="M0 0 C5.034 1.594 8.055 4.512 11.75 8.188 C11.09 8.848 10.43 9.507 9.75 10.188 C9.173 9.569 8.595 8.95 8 8.312 C5.249 5.714 3.207 4.308 -0.609 3.992 C-1.398 4.015 -2.187 4.039 -3 4.062 C-4.199 4.09 -4.199 4.09 -5.422 4.117 C-6.327 4.152 -6.327 4.152 -7.25 4.188 C-4.926 1.12 -3.913 0.226 0 0 Z " fill="#253344" transform="translate(129.25,349.8125)"/>
<path d="M0 0 C3.265 3.916 6.031 8.013 8.75 12.312 C9.161 12.958 9.572 13.603 9.996 14.268 C11 15.843 12 17.421 13 19 C12.01 19 11.02 19 10 19 C6 13.743 6 13.743 6 11 C5.01 11 4.02 11 3 11 C2.34 10.01 1.68 9.02 1 8 C0.34 7.67 -0.32 7.34 -1 7 C-0.67 4.69 -0.34 2.38 0 0 Z " fill="#223449" transform="translate(152,292)"/>
<path d="M0 0 C8.366 7.05 8.366 7.05 11 10 C11 10.66 11 11.32 11 12 C11.99 12 12.98 12 14 12 C14.66 13.65 15.32 15.3 16 17 C13 17 13 17 10.406 14.516 C9.429 13.435 8.461 12.346 7.5 11.25 C7.014 10.711 6.528 10.172 6.027 9.617 C3.543 6.842 1.174 4.026 -1 1 C-0.67 0.67 -0.34 0.34 0 0 Z " fill="#EBEDF0" transform="translate(31,287)"/>
<path d="M0 0 C2.868 1.769 5.439 3.816 8 6 C7.01 7.485 7.01 7.485 6 9 C5.361 8.175 4.721 7.35 4.062 6.5 C-0.024 3.164 -2.929 3.503 -8 4 C-8 3.01 -8 2.02 -8 1 C-5.025 -0.487 -3.327 -0.431 0 0 Z " fill="#CBCED2" transform="translate(110,220)"/>
<path d="M0 0 C0.33 0.66 0.66 1.32 1 2 C1.66 2.33 2.32 2.66 3 3 C1.726 5.038 0.389 7.039 -1 9 C-1.66 9 -2.32 9 -3 9 C-3.33 9.66 -3.66 10.32 -4 11 C-6.062 12.125 -6.062 12.125 -8 13 C-8 12.34 -8 11.68 -8 11 C-8.66 10.67 -9.32 10.34 -10 10 C-9.092 9.464 -8.185 8.928 -7.25 8.375 C-3.796 6.099 -2.089 3.536 0 0 Z " fill="#1D3146" transform="translate(313,326)"/>
<path d="M0 0 C0.66 0 1.32 0 2 0 C3 3 3 3 1.566 6.137 C0.909 7.326 0.24 8.509 -0.438 9.688 C-0.776 10.294 -1.114 10.901 -1.463 11.525 C-2.3 13.022 -3.149 14.512 -4 16 C-4.66 15.34 -5.32 14.68 -6 14 C-6 12.68 -6 11.36 -6 10 C-5.34 10 -4.68 10 -4 10 C-4 8.68 -4 7.36 -4 6 C-3.01 6 -2.02 6 -1 6 C-1.021 5.196 -1.041 4.391 -1.062 3.562 C-1 1 -1 1 0 0 Z " fill="#1B2D3F" transform="translate(506,281)"/>
<path d="M0 0 C0.66 0.99 1.32 1.98 2 3 C-0.64 7.62 -3.28 12.24 -6 17 C-6.66 15.68 -7.32 14.36 -8 13 C-6.625 9.25 -6.625 9.25 -5 6 C-4.34 6 -3.68 6 -3 6 C-2.67 4.68 -2.34 3.36 -2 2 C-1.34 2 -0.68 2 0 2 C0 1.34 0 0.68 0 0 Z " fill="#1B2D40" transform="translate(74,251)"/>
<path d="M0 0 C2.018 0.293 4.036 0.586 6.055 0.879 C8.081 1.168 8.081 1.168 10 0 C10 0.66 10 1.32 10 2 C10.66 2 11.32 2 12 2 C12 2.66 12 3.32 12 4 C10.312 5.688 10.312 5.688 8 7 C5.375 6.938 5.375 6.938 3 6 C1.75 4.062 1.75 4.062 1 2 C0.67 1.34 0.34 0.68 0 0 Z " fill="#16263C" transform="translate(38,291)"/>
<path d="M0 0 C0.66 0.99 1.32 1.98 2 3 C-3.445 9.93 -3.445 9.93 -9 17 C-9.66 16.67 -10.32 16.34 -11 16 C-9.321 12.199 -6.885 9.029 -4.375 5.75 C-3.955 5.196 -3.535 4.641 -3.102 4.07 C-2.071 2.711 -1.036 1.355 0 0 Z " fill="#DCDEE1" transform="translate(474,341)"/>
<path d="M0 0 C0.99 0.33 1.98 0.66 3 1 C1.02 4.96 -0.96 8.92 -3 13 C-3.66 12.67 -4.32 12.34 -5 12 C-5 11.01 -5 10.02 -5 9 C-5.66 9 -6.32 9 -7 9 C-7 8.34 -7 7.68 -7 7 C-6.216 6.546 -5.433 6.092 -4.625 5.625 C-1.876 3.923 -1.121 2.955 0 0 Z " fill="#17283C" transform="translate(325,296)"/>
<path d="M0 0 C0.66 0.33 1.32 0.66 2 1 C1.01 4.63 0.02 8.26 -1 12 C-2.65 11.01 -4.3 10.02 -6 9 C-6.33 9.99 -6.66 10.98 -7 12 C-7.66 11.67 -8.32 11.34 -9 11 C-6.03 7.37 -3.06 3.74 0 0 Z " fill="#1F3349" transform="translate(95,230)"/>
<path d="M0 0 C-2.256 2.256 -4.046 2.966 -7 4.125 C-7.887 4.478 -8.774 4.831 -9.688 5.195 C-12 6 -12 6 -14 6 C-14 5.34 -14 4.68 -14 4 C-14.66 3.67 -15.32 3.34 -16 3 C-14.34 2.317 -12.672 1.654 -11 1 C-9.515 0.412 -9.515 0.412 -8 -0.188 C-4.833 -1.045 -3.109 -0.914 0 0 Z " fill="#203349" transform="translate(404,400)"/>
<path d="M0 0 C2.779 3.473 4.985 7.041 7 11 C6.67 11.99 6.34 12.98 6 14 C5.01 13.67 4.02 13.34 3 13 C3 11.68 3 10.36 3 9 C2.01 9 1.02 9 0 9 C-1.125 2.25 -1.125 2.25 0 0 Z " fill="#1E2D40" transform="translate(293,332)"/>
<path d="M0 0 C0.746 0.082 1.493 0.165 2.262 0.25 C1.932 1.9 1.602 3.55 1.262 5.25 C-1.048 5.58 -3.358 5.91 -5.738 6.25 C-5.738 7.24 -5.738 8.23 -5.738 9.25 C-7.058 8.92 -8.378 8.59 -9.738 8.25 C-8.694 6.902 -7.627 5.572 -6.551 4.25 C-5.959 3.507 -5.367 2.765 -4.758 2 C-2.738 0.25 -2.738 0.25 0 0 Z " fill="#1D3147" transform="translate(442.73828125,297.75)"/>
<path d="M0 0 C0.33 0 0.66 0 1 0 C0.67 3.63 0.34 7.26 0 11 C-1.65 11.66 -3.3 12.32 -5 13 C-5 8.853 -4.522 7.688 -2.5 4.25 C-2.036 3.451 -1.572 2.652 -1.094 1.828 C-0.733 1.225 -0.372 0.622 0 0 Z " fill="#1B3047" transform="translate(346,267)"/>
<path d="M0 0 C3.925 3.701 6.946 7.55 10 12 C9.01 12.33 8.02 12.66 7 13 C6.587 12.196 6.175 11.391 5.75 10.562 C4.276 7.862 4.276 7.862 1.875 7.25 C1.256 7.168 0.637 7.085 0 7 C-1 6 -1 6 -1.125 3.5 C-1 1 -1 1 0 0 Z " fill="#1D2C3E" transform="translate(321,378)"/>
<path d="M0 0 C3.746 1.249 4.722 2.847 7.125 5.938 C7.829 6.833 8.533 7.729 9.258 8.652 C11 11 11 11 12 13 C11.34 13.66 10.68 14.32 10 15 C8.324 13.07 6.659 11.132 5 9.188 C4.523 8.64 4.046 8.093 3.555 7.529 C0 3.34 0 3.34 0 0 Z " fill="#D6D9DC" transform="translate(323,378)"/>
<path d="M0 0 C0.66 0.99 1.32 1.98 2 3 C-0.64 7.95 -3.28 12.9 -6 18 C-6.66 17.67 -7.32 17.34 -8 17 C-6.334 10.836 -3.122 5.517 0 0 Z " fill="#D9DADE" transform="translate(505,289)"/>
<path d="M0 0 C1.178 -0.008 1.178 -0.008 2.379 -0.016 C4.438 0.25 4.438 0.25 6.438 2.25 C3.41 2.494 3.41 2.494 0.383 2.738 C-1.958 3.124 -1.958 3.124 -3.562 6.25 C-6.188 6.438 -6.188 6.438 -8.562 6.25 C-8.25 4.375 -8.25 4.375 -7.562 2.25 C-4.428 0.161 -3.588 -0.024 0 0 Z " fill="#19283C" transform="translate(550.5625,236.75)"/>
<path d="M0 0 C1.32 0.33 2.64 0.66 4 1 C4 1.99 4 2.98 4 4 C4.99 3.67 5.98 3.34 7 3 C7 2.34 7 1.68 7 1 C9.97 1.495 9.97 1.495 13 2 C13 2.66 13 3.32 13 4 C9.582 6.539 7.242 7.364 3 7 C2.01 4.69 1.02 2.38 0 0 Z " fill="#1B2B3D" transform="translate(294,328)"/>
<path d="M0 0 C2.305 2.962 4.276 6.022 6.188 9.25 C6.717 10.142 7.247 11.034 7.793 11.953 C8.191 12.629 8.59 13.304 9 14 C8.01 14 7.02 14 6 14 C4.286 12.041 2.616 10.041 1 8 C0.67 8 0.34 8 0 8 C0 6.35 0 4.7 0 3 C-0.66 2.67 -1.32 2.34 -2 2 C-1.34 2 -0.68 2 0 2 C0 1.34 0 0.68 0 0 Z " fill="#212F41" transform="translate(77,358)"/>
<path d="M0 0 C0.33 0.99 0.66 1.98 1 3 C-0.358 5.339 -1.731 7.447 -3.312 9.625 C-3.73 10.223 -4.147 10.821 -4.576 11.438 C-7.709 15.855 -7.709 15.855 -10 17 C-9.435 13.069 -8.286 10.466 -6.062 7.188 C-5.538 6.397 -5.013 5.607 -4.473 4.793 C-3.744 3.905 -3.744 3.905 -3 3 C-2.34 3 -1.68 3 -1 3 C-0.67 2.01 -0.34 1.02 0 0 Z " fill="#E3E5E8" transform="translate(485,326)"/>
<path d="M0 0 C1 3 1 3 -0.363 6.32 C-1.003 7.594 -1.653 8.862 -2.312 10.125 C-2.634 10.771 -2.956 11.417 -3.287 12.082 C-5.728 16.864 -5.728 16.864 -8 18 C-7.477 13.097 -5.999 9.816 -3.438 5.625 C-2.797 4.565 -2.156 3.506 -1.496 2.414 C-1.002 1.617 -0.509 0.821 0 0 Z " fill="#E0E2E6" transform="translate(333,287)"/>
<path d="M0 0 C0.99 0.33 1.98 0.66 3 1 C-0.88 5.244 -5.043 8.109 -10 11 C-10.66 10.34 -11.32 9.68 -12 9 C-10.072 7.466 -8.134 5.948 -6.188 4.438 C-5.64 4 -5.093 3.562 -4.529 3.111 C-3.078 1.994 -1.542 0.989 0 0 Z " fill="#DBDDE1" transform="translate(439,378)"/>
<path d="M0 0 C0.66 0.33 1.32 0.66 2 1 C1.67 4.3 1.34 7.6 1 11 C-0.65 11 -2.3 11 -4 11 C-4.33 10.34 -4.66 9.68 -5 9 C-4.004 6.836 -4.004 6.836 -2.562 4.375 C-2.089 3.558 -1.616 2.74 -1.129 1.898 C-0.756 1.272 -0.384 0.645 0 0 Z " fill="#192A3E" transform="translate(194,367)"/>
<path d="M0 0 C0.99 0.99 1.98 1.98 3 3 C1.719 4.707 0.382 6.374 -1 8 C-1.66 8 -2.32 8 -3 8 C-3.66 9.32 -4.32 10.64 -5 12 C-5.99 11.67 -6.98 11.34 -8 11 C-5.36 7.37 -2.72 3.74 0 0 Z " fill="#1C2B3E" transform="translate(476,342)"/>
<path d="M0 0 C0.66 0.99 1.32 1.98 2 3 C-4.093 11.081 -4.093 11.081 -10 12 C-10.99 11.34 -11.98 10.68 -13 10 C-12.374 9.83 -11.747 9.66 -11.102 9.484 C-10.284 9.242 -9.467 9 -8.625 8.75 C-7.813 8.518 -7.001 8.286 -6.164 8.047 C-3.486 6.751 -3.089 5.708 -2 3 C-1.34 2.01 -0.68 1.02 0 0 Z " fill="#D4D7DB" transform="translate(311,325)"/>
<path d="M0 0 C0.66 0 1.32 0 2 0 C2.863 2.399 3.219 3.518 2.145 5.887 C1.705 6.481 1.265 7.075 0.812 7.688 C0.386 8.289 -0.041 8.891 -0.48 9.512 C-2 11 -2 11 -6 12 C-4.02 8.04 -2.04 4.08 0 0 Z " fill="#1C2C40" transform="translate(516,274)"/>
<path d="M0 0 C0.99 0 1.98 0 3 0 C2.648 5.461 2.648 5.461 2 8 C-0.062 9.5 -0.062 9.5 -2 10 C-2 10.66 -2 11.32 -2 12 C-2.66 12 -3.32 12 -4 12 C-2.667 8 -1.333 4 0 0 Z " fill="#223244" transform="translate(231,285)"/>
<path d="M0 0 C3.21 1.382 5.049 2.924 7.25 5.625 C7.771 6.257 8.292 6.888 8.828 7.539 C9.408 8.262 9.408 8.262 10 9 C9.01 9 8.02 9 7 9 C6.546 8.526 6.092 8.051 5.625 7.562 C3.536 5.554 1.822 5.381 -1 5 C-0.67 3.35 -0.34 1.7 0 0 Z " fill="#18283B" transform="translate(330,391)"/>
<path d="M0 0 C-1.595 1.2 -3.201 2.385 -4.812 3.562 C-5.706 4.224 -6.599 4.885 -7.52 5.566 C-8.338 6.039 -9.157 6.513 -10 7 C-10.99 6.67 -11.98 6.34 -13 6 C-13 5.34 -13 4.68 -13 4 C-12.34 4 -11.68 4 -11 4 C-11 3.34 -11 2.68 -11 2 C-4.036 -1.348 -4.036 -1.348 0 0 Z " fill="#1F344A" transform="translate(434,383)"/>
<path d="M0 0 C1.98 0.66 3.96 1.32 6 2 C6 2.66 6 3.32 6 4 C5.34 4 4.68 4 4 4 C5.32 6.31 6.64 8.62 8 11 C7.01 11 6.02 11 5 11 C3.359 9.355 3.359 9.355 1.75 7.188 C1.209 6.48 0.667 5.772 0.109 5.043 C-0.257 4.369 -0.623 3.695 -1 3 C-0.67 2.01 -0.34 1.02 0 0 Z " fill="#203449" transform="translate(321,370)"/>
<path d="M0 0 C2.475 0.495 2.475 0.495 5 1 C4.01 1.495 4.01 1.495 3 2 C3.559 2.905 3.559 2.905 4.129 3.828 C4.602 4.627 5.075 5.427 5.562 6.25 C6.038 7.039 6.514 7.828 7.004 8.641 C8.13 11.308 8.017 12.345 7 15 C5.825 13.067 4.661 11.129 3.5 9.188 C2.85 8.109 2.201 7.03 1.531 5.918 C0 3 0 3 0 0 Z " fill="#E5E8EC" transform="translate(296,335)"/>
<path d="M0 0 C4.827 2.413 7.7 5.861 11 10 C10.01 10.33 9.02 10.66 8 11 C4.247 8.56 1.997 5.994 0 2 C0 1.34 0 0.68 0 0 Z " fill="#293B4E" transform="translate(446,300)"/>
<path d="M0 0 C3.231 3.808 5.804 7.527 8 12 C7.75 14.438 7.75 14.438 7 16 C3.703 11.878 0.207 7.428 -0.25 2.062 C-0.168 1.382 -0.085 0.701 0 0 Z " fill="#D3D7DC" transform="translate(382,265)"/>
<path d="M0 0 C0.66 0.99 1.32 1.98 2 3 C1.125 6.188 1.125 6.188 0 9 C-0.99 9 -1.98 9 -3 9 C-3.66 10.65 -4.32 12.3 -5 14 C-5.66 14 -6.32 14 -7 14 C-5.236 9.028 -2.606 4.566 0 0 Z " fill="#25394E" transform="translate(75,258)"/>
<path d="M0 0 C2.5 2 2.5 2 4 4 C1 4 1 4 -1 3 C-5.221 2.719 -8.173 3.199 -12 5 C-9.489 -0.559 -5.874 -0.894 0 0 Z " fill="#E2E4E8" transform="translate(368,249)"/>
<path d="M0 0 C0.33 0.66 0.66 1.32 1 2 C1.66 2.33 2.32 2.66 3 3 C2.551 4.482 2.09 5.961 1.625 7.438 C1.37 8.261 1.115 9.085 0.852 9.934 C0 12 0 12 -2 13 C-2.66 12.67 -3.32 12.34 -4 12 C-2.872 7.891 -1.665 3.924 0 0 Z " fill="#1C2C3F" transform="translate(222,307)"/>
<path d="M0 0 C4.951 0.825 8.17 3.764 11.375 7.562 C11.375 8.553 11.375 9.543 11.375 10.562 C10.893 10.141 10.411 9.719 9.914 9.285 C9.282 8.737 8.651 8.189 8 7.625 C7.374 7.08 6.747 6.534 6.102 5.973 C4.419 4.493 4.419 4.493 2.375 3.562 C2.375 2.903 2.375 2.243 2.375 1.562 C0.065 1.893 -2.245 2.222 -4.625 2.562 C-2.625 0.562 -2.625 0.562 0 0 Z " fill="#203348" transform="translate(363.625,250.4375)"/>
<path d="M0 0 C0.99 0.33 1.98 0.66 3 1 C-0.96 4.96 -4.92 8.92 -9 13 C-9.33 12.01 -9.66 11.02 -10 10 C-6.7 6.7 -3.4 3.4 0 0 Z " fill="#E7E8EB" transform="translate(541,238)"/>
<path d="M0 0 C1.32 0.33 2.64 0.66 4 1 C3.067 2.129 2.129 3.253 1.188 4.375 C0.665 5.001 0.143 5.628 -0.395 6.273 C-2 8 -2 8 -5 10 C-4.477 7.237 -3.891 4.674 -3 2 C-2.01 2 -1.02 2 0 2 C0 1.34 0 0.68 0 0 Z " fill="#253647" transform="translate(538,236)"/>
<path d="M0 0 C4.001 3.667 6.668 7.067 9 12 C8.602 14.215 8.602 14.215 8 16 C6.658 13.901 5.327 11.796 4 9.688 C3.618 9.093 3.237 8.498 2.844 7.885 C0 3.34 0 3.34 0 0 Z " fill="#DDE2E7" transform="translate(117,227)"/>
<path d="M0 0 C0 0.66 0 1.32 0 2 C-7.497 3.144 -14.468 2.757 -22 2 C-22 1.67 -22 1.34 -22 1 C-20.952 0.939 -19.904 0.879 -18.824 0.816 C-17.445 0.732 -16.066 0.647 -14.688 0.562 C-13.997 0.523 -13.307 0.484 -12.596 0.443 C-0.932 -0.289 -0.932 -0.289 0 0 Z " fill="#BBBFC6" transform="translate(385,409)"/>
<path d="M0 0 C3 1 3 1 4.168 3.285 C4.504 4.202 4.841 5.118 5.188 6.062 C5.532 6.982 5.876 7.901 6.23 8.848 C6.484 9.558 6.738 10.268 7 11 C5.68 10.67 4.36 10.34 3 10 C3 9.34 3 8.68 3 8 C2.34 8 1.68 8 1 8 C0.67 5.36 0.34 2.72 0 0 Z " fill="#1F2E40" transform="translate(273,294)"/>
<path d="M0 0 C1 3 1 3 0.062 5.188 C-2.352 7.309 -3.077 7.256 -6.188 7.25 C-7.446 7.168 -8.704 7.085 -10 7 C-6.803 4.351 -3.605 2.06 0 0 Z " fill="#202F42" transform="translate(431,387)"/>
<path d="M0 0 C4.081 0.505 5.663 2.501 8.25 5.562 C8.956 6.389 9.663 7.215 10.391 8.066 C10.922 8.704 11.453 9.343 12 10 C11.34 10.66 10.68 11.32 10 12 C8.33 10.19 6.664 8.377 5 6.562 C4.285 5.788 4.285 5.788 3.555 4.998 C0 1.113 0 1.113 0 0 Z " fill="#E5E8EC" transform="translate(135,352)"/>
<path d="M0 0 C0.99 0.66 1.98 1.32 3 2 C1.844 5.912 0.645 8.875 -2 12 C-2.33 9.69 -2.66 7.38 -3 5 C-2.01 4.67 -1.02 4.34 0 4 C0 2.68 0 1.36 0 0 Z " fill="#22374C" transform="translate(196,351)"/>
<path d="M0 0 C1.074 1.836 1.074 1.836 2 4 C0.425 7.481 -0.789 8.859 -4 11 C-5 8 -5 8 -4.004 5.957 C-3.528 5.249 -3.053 4.542 -2.562 3.812 C-2.089 3.097 -1.616 2.382 -1.129 1.645 C-0.756 1.102 -0.384 0.559 0 0 Z " fill="#213144" transform="translate(486,327)"/>
<path d="M0 0 C1.892 2.386 3.024 4.072 4 7 C3.01 7 2.02 7 1 7 C0.67 7.99 0.34 8.98 0 10 C-0.66 9.67 -1.32 9.34 -2 9 C-1.125 1.125 -1.125 1.125 0 0 Z " fill="#1F3248" transform="translate(404,311)"/>
<path d="M0 0 C0.66 0.99 1.32 1.98 2 3 C0.875 6.625 0.875 6.625 -1 10 C-3.188 10.938 -3.188 10.938 -5 11 C-3.55 7.209 -1.848 3.613 0 0 Z " fill="#1D2D41" transform="translate(505,294)"/>
<path d="M0 0 C0.99 0.33 1.98 0.66 3 1 C2.097 2.322 1.177 3.632 0.25 4.938 C-0.26 5.668 -0.771 6.399 -1.297 7.152 C-3.192 9.208 -4.274 9.627 -7 10 C-2.857 2.429 -2.857 2.429 0 0 Z " fill="#CDD2D7" transform="translate(354,253)"/>
<path d="M0 0 C3.04 3.649 4.965 7.744 7 12 C6.01 12.99 5.02 13.98 4 15 C3.01 11.04 2.02 7.08 1 3 C0.34 3 -0.32 3 -1 3 C-0.67 2.01 -0.34 1.02 0 0 Z " fill="#1E2B3F" transform="translate(286,319)"/>
<path d="M0 0 C0.66 0.99 1.32 1.98 2 3 C1.01 4.485 1.01 4.485 0 6 C-0.66 6 -1.32 6 -2 6 C-2.33 7.98 -2.66 9.96 -3 12 C-4.32 12.33 -5.64 12.66 -7 13 C-6.211 11.395 -5.419 9.791 -4.625 8.188 C-4.184 7.294 -3.743 6.401 -3.289 5.48 C-2 3 -2 3 0 0 Z " fill="#263A4E" transform="translate(83,245)"/>
<path d="M0 0 C0.99 0.33 1.98 0.66 3 1 C2.025 2.503 1.045 4.002 0.062 5.5 C-0.483 6.335 -1.028 7.171 -1.59 8.031 C-2.055 8.681 -2.521 9.331 -3 10 C-3.33 10 -3.66 10 -4 10 C-4.33 7.69 -4.66 5.38 -5 3 C-2.688 1.438 -2.688 1.438 0 0 Z " fill="#1F354A" transform="translate(185,374)"/>
<path d="M0 0 C0 0.66 0 1.32 0 2 C-2 3.625 -2 3.625 -4 5 C-3.67 6.65 -3.34 8.3 -3 10 C-5.325 7.147 -6.751 4.459 -8 1 C-2.25 -1.125 -2.25 -1.125 0 0 Z " fill="#293B4C" transform="translate(422,322)"/>
<path d="M0 0 C2.018 0.065 4.036 0.13 6.055 0.195 C6.055 1.185 6.055 2.175 6.055 3.195 C3.745 3.195 1.435 3.195 -0.945 3.195 C-0.615 4.185 -0.285 5.175 0.055 6.195 C-0.935 6.195 -1.925 6.195 -2.945 6.195 C-3.57 4.32 -3.57 4.32 -3.945 2.195 C-1.945 0.195 -1.945 0.195 0 0 Z " fill="#BCC0C7" transform="translate(176.9453125,318.8046875)"/>
<path d="M0 0 C0.99 1.32 1.98 2.64 3 4 C0.03 6.475 0.03 6.475 -3 9 C-4 8 -4 8 -4.062 5.438 C-4.042 4.633 -4.021 3.829 -4 3 C-2.68 3 -1.36 3 0 3 C0 2.01 0 1.02 0 0 Z " fill="#18293D" transform="translate(220,278)"/>
<path d="M0 0 C0.878 3.097 0.994 4.906 0 8 C-0.66 8 -1.32 8 -2 8 C-1.67 8.99 -1.34 9.98 -1 11 C-1.99 11.33 -2.98 11.66 -4 12 C-4.652 10.266 -4.652 10.266 -5 8 C-4.004 5.859 -4.004 5.859 -2.562 3.75 C-2.089 3.044 -1.616 2.337 -1.129 1.609 C-0.756 1.078 -0.384 0.547 0 0 Z " fill="#18283D" transform="translate(527,257)"/>
<path d="M0 0 C4.455 2.97 4.455 2.97 9 6 C5 7 5 7 2 6 C1.01 6 0.02 6 -1 6 C-0.67 4.02 -0.34 2.04 0 0 Z " fill="#19283C" transform="translate(340,400)"/>
<path d="M0 0 C3.219 3.794 5.616 7.658 8 12 C7.01 12.495 7.01 12.495 6 13 C5.511 12.134 5.511 12.134 5.012 11.25 C4.575 10.507 4.138 9.765 3.688 9 C3.258 8.257 2.829 7.515 2.387 6.75 C1.929 6.173 1.471 5.595 1 5 C0.01 5 -0.98 5 -2 5 C-1.34 3.35 -0.68 1.7 0 0 Z " fill="#22354A" transform="translate(423,344)"/>
<path d="M0 0 C2.401 2.881 4.473 5.564 6 9 C4.68 9.33 3.36 9.66 2 10 C1.711 9.031 1.422 8.061 1.125 7.062 C0.358 3.893 0.358 3.893 -2 3 C-1 1 -1 1 0 0 Z " fill="#1F2F42" transform="translate(50,312)"/>
<path d="M0 0 C0.959 3.836 0.919 5.324 0 9 C-0.66 8.67 -1.32 8.34 -2 8 C-2.33 9.32 -2.66 10.64 -3 12 C-4.32 12.33 -5.64 12.66 -7 13 C-3.535 6.565 -3.535 6.565 0 0 Z " fill="#26384D" transform="translate(321,313)"/>
<path d="M0 0 C3.336 2.991 5.151 5.932 7 10 C6.031 9.67 5.061 9.34 4.062 9 C1.379 7.948 1.379 7.948 0 8 C0 5.36 0 2.72 0 0 Z " fill="#213449" transform="translate(376,261)"/>
<path d="M0 0 C0 3.694 -1.282 5.778 -3 9 C-4.98 9 -6.96 9 -9 9 C-6 6 -3 3 0 0 Z " fill="#1B2A3E" transform="translate(107,369)"/>
<path d="M0 0 C0.99 0.33 1.98 0.66 3 1 C0.03 3.97 -2.94 6.94 -6 10 C-6.66 9.34 -7.32 8.68 -8 8 C-5.36 5.36 -2.72 2.72 0 0 Z " fill="#E7EAED" transform="translate(121,351)"/>
<path d="M0 0 C3.26 3.17 6.222 6.399 9 10 C5.421 10 4.603 9.351 2 7 C0.338 4.341 0 3.196 0 0 Z " fill="#24374C" transform="translate(179,332)"/>
<path d="M0 0 C0.887 0.186 1.774 0.371 2.688 0.562 C5.852 0.98 7.948 0.808 11 0 C11.33 0.66 11.66 1.32 12 2 C8.356 4.429 6.288 4.162 2 4 C1.34 2.68 0.68 1.36 0 0 Z " fill="#1A2A3C" transform="translate(410,316)"/>
<path d="M0 0 C3.941 1.668 6.789 4.227 10 7 C9.67 7.99 9.34 8.98 9 10 C7.868 9.092 6.745 8.173 5.625 7.25 C4.999 6.74 4.372 6.229 3.727 5.703 C1.917 3.918 0.999 2.321 0 0 Z " fill="#233244" transform="translate(455,303)"/>
<path d="M0 0 C3.21 1.382 5.049 2.924 7.25 5.625 C8.031 6.572 8.031 6.572 8.828 7.539 C9.408 8.262 9.408 8.262 10 9 C7 9 7 9 5.176 7.539 C4.561 6.907 3.946 6.276 3.312 5.625 C2.69 4.999 2.067 4.372 1.426 3.727 C0 2 0 2 0 0 Z " fill="#2C3F53" transform="translate(335,390)"/>
<path d="M0 0 C0.66 0.99 1.32 1.98 2 3 C-0.712 5.603 -1.891 5.995 -5.75 6.188 C-6.822 6.126 -7.895 6.064 -9 6 C-9 5.34 -9 4.68 -9 4 C-7.886 3.711 -6.773 3.423 -5.625 3.125 C-1.997 2.308 -1.997 2.308 0 0 Z " fill="#D4D6DB" transform="translate(178,387)"/>
<path d="M0 0 C-1.432 1.008 -2.871 2.006 -4.312 3 C-5.513 3.835 -5.513 3.835 -6.738 4.688 C-9 6 -9 6 -12 6 C-12 5.34 -12 4.68 -12 4 C-10.391 2.676 -10.391 2.676 -8.25 1.312 C-7.554 0.855 -6.858 0.397 -6.141 -0.074 C-3.609 -1.169 -2.539 -0.944 0 0 Z " fill="#E5E7EA" transform="translate(429,389)"/>
<path d="M0 0 C0.99 0 1.98 0 3 0 C3.99 2.31 4.98 4.62 6 7 C4.334 7.043 2.666 7.041 1 7 C0 6 0 6 -0.062 2.938 C-0.042 1.968 -0.021 0.999 0 0 Z " fill="#1A2B3F" transform="translate(67,344)"/>
<path d="M0 0 C3.391 1.453 5.413 3.413 8 6 C8.99 6.33 9.98 6.66 11 7 C11 7.66 11 8.32 11 9 C6.026 7.728 3.327 5.914 0 2 C0 1.34 0 0.68 0 0 Z " fill="#E6E7E9" transform="translate(191,344)"/>
<path d="M0 0 C0.99 0 1.98 0 3 0 C3.99 2.31 4.98 4.62 6 7 C3.03 6.505 3.03 6.505 0 6 C-1 3 -1 3 0 0 Z " fill="#1A293E" transform="translate(62,335)"/>
<path d="M0 0 C2.865 3.41 4.347 6.907 6 11 C5.01 11 4.02 11 3 11 C3 10.34 3 9.68 3 9 C2.34 9 1.68 9 1 9 C1 7.02 1 5.04 1 3 C0.34 3 -0.32 3 -1 3 C-0.67 2.01 -0.34 1.02 0 0 Z " fill="#203349" transform="translate(395,294)"/>
<path d="M0 0 C0.99 0.33 1.98 0.66 3 1 C0.03 3.97 -2.94 6.94 -6 10 C-6.33 9.01 -6.66 8.02 -7 7 C-4.69 4.69 -2.38 2.38 0 0 Z " fill="#E6E8ED" transform="translate(225,279)"/>
<path d="M0 0 C4.75 0.75 4.75 0.75 7 3 C7 3.99 7 4.98 7 6 C2.25 5.25 2.25 5.25 0 3 C0 2.01 0 1.02 0 0 Z " fill="#233345" transform="translate(170,313)"/>
<path d="M0 0 C-0.66 1.98 -1.32 3.96 -2 6 C-4.763 6.597 -7.16 7 -10 7 C-8.714 5.827 -7.421 4.662 -6.125 3.5 C-5.046 2.525 -5.046 2.525 -3.945 1.531 C-2 0 -2 0 0 0 Z " fill="#283D51" transform="translate(232,278)"/>
<path d="M0 0 C3.936 0.562 6.792 1.617 10 4 C10 4.99 10 5.98 10 7 C6.42 5.348 3.22 3.269 0 1 C0 0.67 0 0.34 0 0 Z " fill="#D8DADF" transform="translate(556,237)"/>
<path d="M0 0 C1.129 0.933 2.253 1.871 3.375 2.812 C4.001 3.335 4.628 3.857 5.273 4.395 C7 6 7 6 9 9 C6 9 6 9 4.395 7.793 C3.872 7.263 3.35 6.733 2.812 6.188 C2.018 5.404 2.018 5.404 1.207 4.605 C0 3 0 3 0 0 Z " fill="#E9EBEE" transform="translate(334,391)"/>
<path d="M0 0 C1.812 0.188 1.812 0.188 4 1 C5.75 3.562 5.75 3.562 7 6 C4.379 6 2.491 5.687 0 5 C0 3.35 0 1.7 0 0 Z " fill="#1D3149" transform="translate(430,358)"/>
<path d="M0 0 C0.66 0 1.32 0 2 0 C3.508 1.969 3.508 1.969 5.125 4.5 C5.664 5.335 6.203 6.171 6.758 7.031 C7.168 7.681 7.578 8.331 8 9 C7.01 9 6.02 9 5 9 C0 3.767 0 3.767 0 0 Z " fill="#DFE2E6" transform="translate(176,325)"/>
<path d="M0 0 C0.33 1.32 0.66 2.64 1 4 C-1.188 6.062 -1.188 6.062 -4 8 C-6.812 7.75 -6.812 7.75 -9 7 C-6.95 5.975 -4.92 4.966 -2.812 4.062 C-0.656 3.066 -0.656 3.066 0 0 Z " fill="#D4D7DA" transform="translate(51,292)"/>
<path d="M0 0 C0.66 0 1.32 0 2 0 C1.495 4.379 -1.178 6.817 -4 10 C-4.33 9.01 -4.66 8.02 -5 7 C-4.074 5.176 -4.074 5.176 -2.688 3.312 C-2.238 2.69 -1.788 2.067 -1.324 1.426 C-0.887 0.955 -0.45 0.485 0 0 Z " fill="#E3E4E8" transform="translate(184,379)"/>
<path d="M0 0 C3 1.812 3 1.812 6 4 C6 4.99 6 5.98 6 7 C4.35 6.67 2.7 6.34 1 6 C1 5.34 1 4.68 1 4 C0.34 4 -0.32 4 -1 4 C-0.67 2.68 -0.34 1.36 0 0 Z " fill="#18283D" transform="translate(150,373)"/>
<path d="M0 0 C0.66 0.33 1.32 0.66 2 1 C0.417 5.274 -2.506 7.265 -6 10 C-6.66 9.67 -7.32 9.34 -8 9 C-5.36 6.03 -2.72 3.06 0 0 Z " fill="#213043" transform="translate(467,354)"/>
<path d="M0 0 C0.99 0 1.98 0 3 0 C4.605 1.969 4.605 1.969 6.188 4.5 C6.717 5.335 7.247 6.171 7.793 7.031 C8.191 7.681 8.59 8.331 9 9 C6 9 6 9 4.395 7.539 C3.611 6.592 3.611 6.592 2.812 5.625 C2.283 4.999 1.753 4.372 1.207 3.727 C0 2 0 2 0 0 Z " fill="#283A4E" transform="translate(170,322)"/>
<path d="M0 0 C2.5 2.312 2.5 2.312 5 5 C5 5.99 5 6.98 5 8 C3.68 8.33 2.36 8.66 1 9 C-1.125 2.25 -1.125 2.25 0 0 Z " fill="#16263B" transform="translate(281,312)"/>
<path d="M0 0 C0.99 0 1.98 0 3 0 C2.67 1.98 2.34 3.96 2 6 C0.68 6.33 -0.64 6.66 -2 7 C-1.34 4.69 -0.68 2.38 0 0 Z " fill="#1E2E42" transform="translate(225,300)"/>
<path d="M0 0 C2.19 3.285 2.998 6.207 4 10 C3.01 10.495 3.01 10.495 2 11 C1.303 9.713 0.618 8.421 -0.062 7.125 C-0.637 6.046 -0.637 6.046 -1.223 4.945 C-1.479 4.303 -1.736 3.661 -2 3 C-1 1 -1 1 0 0 Z " fill="#CCD0D5" transform="translate(269,274)"/>
<path d="M0 0 C0.33 0.66 0.66 1.32 1 2 C1.99 2.33 2.98 2.66 4 3 C1.948 5.248 0.993 6.002 -2 7 C-2.66 5.68 -3.32 4.36 -4 3 C-3.01 2.34 -2.02 1.68 -1 1 C-0.67 0.67 -0.34 0.34 0 0 Z " fill="#1D2B3F" transform="translate(230,270)"/>
<path d="M0 0 C4.875 4.625 4.875 4.625 6 8 C4.68 7.67 3.36 7.34 2 7 C2 6.34 2 5.68 2 5 C1.01 5 0.02 5 -1 5 C-0.67 3.35 -0.34 1.7 0 0 Z " fill="#213348" transform="translate(115,228)"/>
<path d="M0 0 C1.073 0.248 2.145 0.495 3.25 0.75 C1.93 1.08 0.61 1.41 -0.75 1.75 C-0.75 2.41 -0.75 3.07 -0.75 3.75 C-3.06 3.75 -5.37 3.75 -7.75 3.75 C-5.152 0.32 -4.431 -0.295 0 0 Z " fill="#21364C" transform="translate(105.75,224.25)"/>
<path d="M0 0 C-4.134 2.756 -6.052 3.108 -11 3 C-10.01 2.67 -9.02 2.34 -8 2 C-8 1.34 -8 0.68 -8 0 C-4.71 -1.097 -3.287 -0.8 0 0 Z " fill="#D6D9DE" transform="translate(393,407)"/>
<path d="M0 0 C0.66 0.99 1.32 1.98 2 3 C1.01 4.485 1.01 4.485 0 6 C-2.97 5.505 -2.97 5.505 -6 5 C-5.196 4.361 -4.391 3.721 -3.562 3.062 C-1.725 1.594 -1.725 1.594 0 0 Z " fill="#1B2B3E" transform="translate(438,382)"/>
<path d="M0 0 C1.32 0.33 2.64 0.66 4 1 C2.35 2.98 0.7 4.96 -1 7 C-1.66 6.67 -2.32 6.34 -3 6 C-3 5.01 -3 4.02 -3 3 C-2.01 3 -1.02 3 0 3 C0 2.01 0 1.02 0 0 Z " fill="#1E3449" transform="translate(102,366)"/>
<path d="M0 0 C0.33 1.32 0.66 2.64 1 4 C-2.086 6.269 -3.422 7.055 -7.312 6.688 C-8.199 6.461 -9.086 6.234 -10 6 C-10 5.67 -10 5.34 -10 5 C-9.362 4.89 -8.724 4.781 -8.066 4.668 C-7.24 4.509 -6.414 4.351 -5.562 4.188 C-4.327 3.961 -4.327 3.961 -3.066 3.73 C-2.384 3.489 -1.703 3.248 -1 3 C-0.67 2.01 -0.34 1.02 0 0 Z " fill="#C4C9D0" transform="translate(423,315)"/>
<path d="M0 0 C0.66 0.66 1.32 1.32 2 2 C1.611 5.013 0.735 6.397 -1 9 C-1.99 8.67 -2.98 8.34 -4 8 C-2.68 5.36 -1.36 2.72 0 0 Z " fill="#21354A" transform="translate(326,304)"/>
<path d="M0 0 C1 4 1 4 0.004 5.703 C-1.331 7.135 -2.665 8.568 -4 10 C-4.66 9.34 -5.32 8.68 -6 8 C-4.02 5.36 -2.04 2.72 0 0 Z " fill="#D9DEE3" transform="translate(217,287)"/>
<path d="M0 0 C3 1 3 1 4.188 2.875 C5 5 5 5 5 8 C4.01 8 3.02 8 2 8 C2 7.01 2 6.02 2 5 C1.34 5 0.68 5 0 5 C0 3.35 0 1.7 0 0 Z " fill="#1F2F43" transform="translate(268,282)"/>
<path d="M0 0 C0.66 0 1.32 0 2 0 C3.32 2.97 4.64 5.94 6 9 C2 8 2 8 0.75 6.188 C0 4 0 4 0 0 Z " fill="#293A4F" transform="translate(137,267)"/>
<path d="M0 0 C0.66 0 1.32 0 2 0 C2.33 0.99 2.66 1.98 3 3 C1.062 5.688 1.062 5.688 -1 8 C-1.66 6.35 -2.32 4.7 -3 3 C-2.01 3 -1.02 3 0 3 C0 2.01 0 1.02 0 0 Z " fill="#1C2C3E" transform="translate(341,265)"/>
<path d="M0 0 C0.99 0.33 1.98 0.66 3 1 C1.02 3.97 -0.96 6.94 -3 10 C-4 7 -4 7 -3.223 5.176 C-2.148 3.451 -1.074 1.725 0 0 Z " fill="#E1E4E8" transform="translate(346,263)"/>
<path d="M0 0 C1.98 0 3.96 0 6 0 C5.34 1.65 4.68 3.3 4 5 C3.01 5 2.02 5 1 5 C0.67 3.35 0.34 1.7 0 0 Z " fill="#15273C" transform="translate(347,253)"/>
<path d="M0 0 C2.31 1.98 4.62 3.96 7 6 C6.01 7.485 6.01 7.485 5 9 C3.02 7.02 1.04 5.04 -1 3 C-0.67 2.01 -0.34 1.02 0 0 Z " fill="#22354A" transform="translate(164,381)"/>
<path d="M0 0 C1.175 0.927 2.34 1.867 3.5 2.812 C4.15 3.335 4.799 3.857 5.469 4.395 C7 6 7 6 7 9 C5.825 8.073 4.66 7.133 3.5 6.188 C2.525 5.404 2.525 5.404 1.531 4.605 C0 3 0 3 0 0 Z " fill="#E7E8EC" transform="translate(162,383)"/>
<path d="M0 0 C0.66 0.99 1.32 1.98 2 3 C0.35 4.98 -1.3 6.96 -3 9 C-3.66 8.67 -4.32 8.34 -5 8 C-3.628 5.046 -2.011 2.56 0 0 Z " fill="#D2D5DA" transform="translate(468,349)"/>
<path d="M0 0 C0.66 0 1.32 0 2 0 C2.66 0.99 3.32 1.98 4 3 C7.066 3.733 7.066 3.733 10 4 C10 4.33 10 4.66 10 5 C7.36 5.66 4.72 6.32 2 7 C0.539 4.353 0 3.106 0 0 Z " fill="#EEF0F2" transform="translate(409,317)"/>
<path d="M0 0 C2.401 2.881 4.473 5.564 6 9 C0.245 5.571 0.245 5.571 -0.938 2.812 C-0.958 2.214 -0.979 1.616 -1 1 C-0.67 0.67 -0.34 0.34 0 0 Z " fill="#1D3247" transform="translate(345,396)"/>
<path d="M0 0 C1 3 1 3 0.375 5.562 C-1 8 -1 8 -6 10 C-4.02 6.7 -2.04 3.4 0 0 Z " fill="#223043" transform="translate(188,377)"/>
<path d="M0 0 C1.32 0 2.64 0 4 0 C4.33 0.99 4.66 1.98 5 3 C3.68 3.99 2.36 4.98 1 6 C0 5 0 5 -0.062 2.438 C-0.042 1.633 -0.021 0.829 0 0 Z " fill="#18293E" transform="translate(422,309)"/>
<path d="M0 0 C1.65 0 3.3 0 5 0 C4.67 1.65 4.34 3.3 4 5 C2.35 4.67 0.7 4.34 -1 4 C-0.67 2.68 -0.34 1.36 0 0 Z " fill="#21374E" transform="translate(440,298)"/>
<path d="M0 0 C0.33 0.99 0.66 1.98 1 3 C0.01 3.99 -0.98 4.98 -2 6 C-3.5 4.625 -3.5 4.625 -5 3 C-5 2.34 -5 1.68 -5 1 C-3 0 -3 0 0 0 Z " fill="#203349" transform="translate(50,299)"/>
<path d="M0 0 C0.66 0.99 1.32 1.98 2 3 C0.68 5.31 -0.64 7.62 -2 10 C-2.66 9.67 -3.32 9.34 -4 9 C-2.801 5.917 -1.523 2.937 0 0 Z " fill="#DBDDE1" transform="translate(69,264)"/>
<path d="M0 0 C0.66 0 1.32 0 2 0 C5.077 5.415 5.077 5.415 4.688 8.375 C4.461 8.911 4.234 9.447 4 10 C0 3.375 0 3.375 0 0 Z " fill="#E0E3E7" transform="translate(135,259)"/>
<path d="M0 0 C3.796 0.542 5.472 2.201 8 5 C7.01 5.33 6.02 5.66 5 6 C2.312 4.188 2.312 4.188 0 2 C0 1.34 0 0.68 0 0 Z " fill="#D8DBDF" transform="translate(342,400)"/>
<path d="M0 0 C2.622 1.049 3.794 1.649 5.25 4.125 C5.498 4.744 5.745 5.363 6 6 C5.34 6.66 4.68 7.32 4 8 C0 3.375 0 3.375 0 0 Z " fill="#D3D7DC" transform="translate(146,363)"/>
<path d="M0 0 C1.5 1.375 1.5 1.375 3 3 C3 3.66 3 4.32 3 5 C1.35 5.33 -0.3 5.66 -2 6 C-2 4.68 -2 3.36 -2 2 C-1.34 2 -0.68 2 0 2 C0 1.34 0 0.68 0 0 Z " fill="#243244" transform="translate(257,255)"/>
<path d="M0 0 C3.255 0.349 4.019 1.021 6.25 3.562 C6.827 4.367 7.405 5.171 8 6 C5 6 5 6 3.613 4.688 C2.409 3.125 1.204 1.562 0 0 Z " fill="#243141" transform="translate(159,385)"/>
<path d="M0 0 C0.99 0.33 1.98 0.66 3 1 C1.35 2.65 -0.3 4.3 -2 6 C-2.99 5.34 -3.98 4.68 -5 4 C-2.688 1.938 -2.688 1.938 0 0 Z " fill="#D2D4D9" transform="translate(439,378)"/>
<path d="M0 0 C0 3 0 3 -1.375 4.438 C-1.911 4.953 -2.448 5.469 -3 6 C-4.176 8.1 -4.176 8.1 -5 10 C-5.66 9.01 -6.32 8.02 -7 7 C-4.69 4.69 -2.38 2.38 0 0 Z " fill="#273648" transform="translate(121,354)"/>
<path d="M0 0 C1.32 0.66 2.64 1.32 4 2 C4 2.66 4 3.32 4 4 C3.34 4 2.68 4 2 4 C2 4.66 2 5.32 2 6 C0.68 6.33 -0.64 6.66 -2 7 C-1.34 4.69 -0.68 2.38 0 0 Z " fill="#1F2E42" transform="translate(217,319)"/>
<path d="M0 0 C2.475 0.99 2.475 0.99 5 2 C5 3.98 5 5.96 5 8 C2.748 5.312 1.118 3.354 0 0 Z " fill="#27394E" transform="translate(56,316)"/>
<path d="M0 0 C5.75 0.75 5.75 0.75 8 3 C7.34 3.66 6.68 4.32 6 5 C4.02 4.34 2.04 3.68 0 3 C0 2.01 0 1.02 0 0 Z " fill="#293849" transform="translate(441,293)"/>
<path d="M0 0 C1.32 0.33 2.64 0.66 4 1 C4.667 4.333 5.333 7.667 6 11 C3.135 7.59 1.653 4.093 0 0 Z " fill="#1E2E3F" transform="translate(391,280)"/>
<path d="M0 0 C5.538 0.615 5.538 0.615 7.875 2.562 C8.432 3.274 8.432 3.274 9 4 C2.25 4.125 2.25 4.125 0 3 C0 2.01 0 1.02 0 0 Z " fill="#344254" transform="translate(358,245)"/>
<path d="M0 0 C-0.33 0.99 -0.66 1.98 -1 3 C-5.455 3.495 -5.455 3.495 -10 4 C-6.863 1.908 -3.855 0 0 0 Z " fill="#2F3E4C" transform="translate(400,405)"/>
<path d="M0 0 C0.99 0 1.98 0 3 0 C3.66 2.97 4.32 5.94 5 9 C0.571 3.857 0.571 3.857 0 0 Z " fill="#38495C" transform="translate(299,337)"/>
<path d="M0 0 C1.562 1.812 1.562 1.812 3 4 C2.67 4.99 2.34 5.98 2 7 C1.01 7 0.02 7 -1 7 C-0.67 4.69 -0.34 2.38 0 0 Z " fill="#23364C" transform="translate(414,329)"/>
<path d="M0 0 C0.688 1.688 0.688 1.688 1 4 C-0.438 6.75 -0.438 6.75 -2 9 C-2.688 7.312 -2.688 7.312 -3 5 C-1.562 2.25 -1.562 2.25 0 0 Z " fill="#E4E7EA" transform="translate(215,320)"/>
<path d="M0 0 C0.99 0.33 1.98 0.66 3 1 C1.875 3.972 0.777 6.334 -1 9 C-2.033 6.212 -2.045 5.132 -1.062 2.25 C-0.712 1.507 -0.361 0.765 0 0 Z " fill="#C7CACF" transform="translate(217,313)"/>
<path d="M0 0 C0.688 1.688 0.688 1.688 1 4 C-0.438 6.75 -0.438 6.75 -2 9 C-2.66 8.67 -3.32 8.34 -4 8 C-2.875 5.028 -1.777 2.666 0 0 Z " fill="#24394E" transform="translate(429,311)"/>
<path d="M0 0 C2 2 2 2 2.125 4.625 C2.084 5.409 2.043 6.192 2 7 C1.01 7 0.02 7 -1 7 C-2 4 -2 4 -1.062 1.812 C-0.537 0.915 -0.537 0.915 0 0 Z " fill="#21354D" transform="translate(64,277)"/>
<path d="M0 0 C0.688 1.688 0.688 1.688 1 4 C-0.312 6.75 -0.312 6.75 -2 9 C-2.66 9 -3.32 9 -4 9 C-2.801 5.917 -1.523 2.937 0 0 Z " fill="#2C3F52" transform="translate(344,270)"/>
<path d="M0 0 C1.32 0.66 2.64 1.32 4 2 C3.01 3.98 2.02 5.96 1 8 C-0.429 5.646 -1.087 4.52 -0.625 1.75 C-0.419 1.173 -0.212 0.595 0 0 Z " fill="#1E2F41" transform="translate(511,271)"/>
<path d="M0 0 C0.66 0.99 1.32 1.98 2 3 C0.35 4.65 -1.3 6.3 -3 8 C-2.453 4.625 -1.945 2.918 0 0 Z " fill="#20374B" transform="translate(477,333)"/>
<path d="M0 0 C1.65 0 3.3 0 5 0 C5.33 0.99 5.66 1.98 6 3 C4.68 3.33 3.36 3.66 2 4 C1.34 2.68 0.68 1.36 0 0 Z " fill="#19283D" transform="translate(475,319)"/>
<path d="M0 0 C2.97 1.98 2.97 1.98 6 4 C5.01 4.99 4.02 5.98 3 7 C0 3.375 0 3.375 0 0 Z " fill="#EEF0F2" transform="translate(169,315)"/>
<path d="M0 0 C0.66 0.33 1.32 0.66 2 1 C1.67 2.32 1.34 3.64 1 5 C-0.32 5 -1.64 5 -3 5 C-1.125 1.125 -1.125 1.125 0 0 Z " fill="#2E4155" transform="translate(55,291)"/>
<path d="M0 0 C0.33 0.99 0.66 1.98 1 3 C1.66 3.33 2.32 3.66 3 4 C0.525 5.485 0.525 5.485 -2 7 C-2.33 6.01 -2.66 5.02 -3 4 C-1.562 1.812 -1.562 1.812 0 0 Z " fill="#293C50" transform="translate(219,288)"/>
<path d="M0 0 C2.154 2.622 3.401 4.644 4 8 C3.01 8.495 3.01 8.495 2 9 C0.142 5.865 -0.201 3.625 0 0 Z " fill="#D4D8DD" transform="translate(140,266)"/>
<path d="M0 0 C0.33 0 0.66 0 1 0 C1 1.98 1 3.96 1 6 C-0.32 6.33 -1.64 6.66 -3 7 C-1.125 2.25 -1.125 2.25 0 0 Z " fill="#223243" transform="translate(521,266)"/>
<path d="M0 0 C0.66 0 1.32 0 2 0 C2.33 0.99 2.66 1.98 3 3 C1.68 4.32 0.36 5.64 -1 7 C-1.043 5 -1.041 3 -1 1 C-0.67 0.67 -0.34 0.34 0 0 Z " fill="#18293C" transform="translate(345,259)"/>
<path d="M0 0 C0.66 0.33 1.32 0.66 2 1 C2.633 3.066 2.633 3.066 3.125 5.562 C3.293 6.389 3.46 7.215 3.633 8.066 C3.754 8.704 3.875 9.343 4 10 C1.675 7.147 0.249 4.459 -1 1 C-0.67 0.67 -0.34 0.34 0 0 Z " fill="#213043" transform="translate(126,236)"/>
</svg>
